<?xml version="1.0" encoding="UTF-8"?>
<!DOCTYPE svg PUBLIC "-//W3C//DTD SVG 1.1//EN" "http://www.w3.org/Graphics/SVG/1.1/DTD/svg11.dtd">
<!-- Creator: CorelDRAW 2020 (64-Bit) -->
<svg xmlns="http://www.w3.org/2000/svg" xml:space="preserve" width="0.312827in" height="0.312827in" version="1.1" style="shape-rendering:geometricPrecision; text-rendering:geometricPrecision; image-rendering:optimizeQuality; fill-rule:evenodd; clip-rule:evenodd"
viewBox="0 0 1.19 1.19"
 xmlns:xlink="http://www.w3.org/1999/xlink"
 xmlns:xodm="http://www.corel.com/coreldraw/odm/2003">
 <defs>
  <style type="text/css">
   <![CDATA[
    .fil0 {fill:none}
    .fil1 {fill:#E2E8F0;fill-rule:nonzero}
    .fil2 {fill:#FF3466;fill-rule:nonzero}
   ]]>
  </style>
 </defs>
 <g id="Layer_x0020_1">
  <metadata id="CorelCorpID_0Corel-Layer"/>
  <rect class="fil0" width="1.19" height="1.19"/>
  <path class="fil1" d="M0.5 0.77l0.36 0 0 -0.36 -0.36 0 0 0.36zm0.41 0.1l-0.46 0c-0.03,0 -0.05,-0.02 -0.05,-0.05l0 -0.46c0,-0.03 0.02,-0.05 0.05,-0.05l0.46 0c0.03,0 0.05,0.02 0.05,0.05l0 0.46c0,0.03 -0.02,0.05 -0.05,0.05z"/>
  <path class="fil2" d="M0.24 0.69c0,-0.03 0.02,-0.05 0.05,-0.05 0.03,0 0.05,0.02 0.05,0.05l0 0.23c0,0.03 -0.02,0.05 -0.05,0.05 -0.03,0 -0.05,-0.02 -0.05,-0.05l0 -0.23z"/>
  <path class="fil2" d="M0.24 0.27c0,-0.03 0.02,-0.05 0.05,-0.05 0.03,0 0.05,0.02 0.05,0.05l0 0.25c0,0.03 -0.02,0.05 -0.05,0.05 -0.03,0 -0.05,-0.02 -0.05,-0.05l0 -0.25z"/>
 </g>
</svg>
