<?xml version="1.0" encoding="UTF-8"?>
<!DOCTYPE svg PUBLIC "-//W3C//DTD SVG 1.1//EN" "http://www.w3.org/Graphics/SVG/1.1/DTD/svg11.dtd">
<!-- Creator: CorelDRAW 2020 (64-Bit) -->
<svg xmlns="http://www.w3.org/2000/svg" xml:space="preserve" width="0.312827in" height="0.312827in" version="1.1" style="shape-rendering:geometricPrecision; text-rendering:geometricPrecision; image-rendering:optimizeQuality; fill-rule:evenodd; clip-rule:evenodd"
viewBox="0 0 1.17 1.17"
 xmlns:xlink="http://www.w3.org/1999/xlink"
 xmlns:xodm="http://www.corel.com/coreldraw/odm/2003">
 <defs>
  <style type="text/css">
   <![CDATA[
    .fil0 {fill:none}
    .fil1 {fill:#6C7A8C;fill-rule:nonzero}
   ]]>
  </style>
 </defs>
 <g id="Layer_x0020_1">
  <metadata id="CorelCorpID_0Corel-Layer"/>
  <rect class="fil0" width="1.17" height="1.17"/>
  <path class="fil1" d="M0.84 0.27c0.02,-0.02 0.05,-0.02 0.07,0 0.02,0.02 0.02,0.05 0,0.07l-0.17 0.17c-0.02,0.02 -0.05,0.02 -0.07,0 -0.02,-0.02 -0.02,-0.05 0,-0.07l0.17 -0.17zm-0.17 0.46c-0.02,-0.02 -0.02,-0.05 0,-0.07 0.02,-0.02 0.05,-0.02 0.07,0l0.17 0.17c0.02,0.02 0.02,0.05 0,0.07 -0.02,0.02 -0.05,0.02 -0.07,0l-0.17 -0.17zm-0.39 -0.39c-0.02,-0.02 -0.02,-0.05 0,-0.07 0.02,-0.02 0.05,-0.02 0.07,0l0.17 0.17c0.02,0.02 0.02,0.05 0,0.07 -0.02,0.02 -0.05,0.02 -0.07,0l-0.17 -0.17zm0.17 0.32c0.02,-0.02 0.05,-0.02 0.07,0 0.02,0.02 0.02,0.05 0,0.07l-0.17 0.17c-0.02,0.02 -0.05,0.02 -0.07,0 -0.02,-0.02 -0.02,-0.05 0,-0.07l0.17 -0.17z"/>
 </g>
</svg>
