<?xml version="1.0" encoding="UTF-8"?>
<!DOCTYPE svg PUBLIC "-//W3C//DTD SVG 1.1//EN" "http://www.w3.org/Graphics/SVG/1.1/DTD/svg11.dtd">
<!-- Creator: CorelDRAW 2020 (64-Bit) -->
<svg xmlns="http://www.w3.org/2000/svg" xml:space="preserve" width="0.239835in" height="0.239835in" version="1.1" style="shape-rendering:geometricPrecision; text-rendering:geometricPrecision; image-rendering:optimizeQuality; fill-rule:evenodd; clip-rule:evenodd"
viewBox="0 0 0.8 0.8"
 xmlns:xlink="http://www.w3.org/1999/xlink"
 xmlns:xodm="http://www.corel.com/coreldraw/odm/2003">
 <defs>
  <style type="text/css">
   <![CDATA[
    .fil0 {fill:none}
    .fil1 {fill:#E2E8F0;fill-rule:nonzero}
   ]]>
  </style>
 </defs>
 <g id="Layer_x0020_1">
  <metadata id="CorelCorpID_0Corel-Layer"/>
  <rect class="fil0" width="0.8" height="0.8"/>
  <path class="fil1" d="M0.3 0.34l0.19 0 -0 -0.03c-0,-0.02 -0.01,-0.05 -0.03,-0.06 -0.02,-0.02 -0.04,-0.02 -0.06,-0.02 -0.02,0 -0.05,0.01 -0.06,0.02 -0.02,0.02 -0.03,0.04 -0.03,0.06l-0 0.03zm0.25 0c0.01,0 0.01,0.01 0.02,0.01 0.01,0.01 0.01,0.02 0.01,0.03l0 0.13c0,0.01 -0.01,0.02 -0.01,0.03 -0.01,0.01 -0.02,0.01 -0.03,0.01l-0.27 0c-0.01,0 -0.02,-0.01 -0.03,-0.01 -0.01,-0.01 -0.01,-0.02 -0.01,-0.03l0 -0.13c0,-0.01 0.01,-0.02 0.01,-0.03 0,-0 0.01,-0.01 0.02,-0.01 0,-0.01 0,-0.03 0,-0.03 0,-0.04 0.02,-0.07 0.05,-0.1 0.03,-0.02 0.06,-0.04 0.1,-0.04 0.04,0 0.08,0.01 0.1,0.04 0.03,0.02 0.05,0.06 0.05,0.1 0,0.01 0,0.02 0,0.03zm-0.03 0.05l-0.25 0 0 0.11 0.25 0 0 -0.11z"/>
 </g>
</svg>
