<?xml version="1.0" encoding="UTF-8"?>
<!DOCTYPE svg PUBLIC "-//W3C//DTD SVG 1.1//EN" "http://www.w3.org/Graphics/SVG/1.1/DTD/svg11.dtd">
<!-- Creator: CorelDRAW 2020 (64-Bit) -->
<svg xmlns="http://www.w3.org/2000/svg" xml:space="preserve" width="0.239835in" height="0.239835in" version="1.1" style="shape-rendering:geometricPrecision; text-rendering:geometricPrecision; image-rendering:optimizeQuality; fill-rule:evenodd; clip-rule:evenodd"
viewBox="0 0 0.79 0.79"
 xmlns:xlink="http://www.w3.org/1999/xlink"
 xmlns:xodm="http://www.corel.com/coreldraw/odm/2003">
 <defs>
  <style type="text/css">
   <![CDATA[
    .fil0 {fill:none}
    .fil1 {fill:#E2E8F0;fill-rule:nonzero}
   ]]>
  </style>
 </defs>
 <g id="Layer_x0020_1">
  <metadata id="CorelCorpID_0Corel-Layer"/>
  <rect class="fil0" width="0.79" height="0.79"/>
  <path class="fil1" d="M0.4 0.24c0.05,0 0.1,0.01 0.14,0.04 0.04,0.03 0.08,0.06 0.1,0.11 0,0.01 0,0.02 0,0.03 -0.02,0.04 -0.06,0.08 -0.1,0.11 -0.04,0.03 -0.09,0.04 -0.14,0.04 -0.05,0 -0.1,-0.01 -0.14,-0.04 -0.04,-0.03 -0.08,-0.06 -0.1,-0.11 -0,-0.01 -0,-0.02 0,-0.03 0.02,-0.04 0.06,-0.08 0.1,-0.11 0.04,-0.03 0.09,-0.04 0.14,-0.04zm0.08 0.07c0.02,0.02 0.04,0.05 0.04,0.09 0,0.04 -0.01,0.07 -0.04,0.09 0.01,-0 0.02,-0.01 0.03,-0.02 0.03,-0.02 0.06,-0.04 0.07,-0.07 -0.02,-0.03 -0.04,-0.05 -0.07,-0.07 -0.01,-0.01 -0.02,-0.01 -0.03,-0.02zm-0.16 0.18c-0.02,-0.02 -0.04,-0.05 -0.04,-0.09 0,-0.02 0,-0.03 0.01,-0.04 0.01,0.02 0.02,0.03 0.05,0.03 0.03,0 0.05,-0.02 0.05,-0.05 0,-0.02 -0.01,-0.04 -0.03,-0.04 -0.02,0.01 -0.05,0.01 -0.07,0.03 -0.03,0.02 -0.06,0.04 -0.07,0.07 0.02,0.03 0.04,0.05 0.07,0.07 0.01,0.01 0.02,0.01 0.03,0.02z"/>
 </g>
</svg>
