<?xml version="1.0" encoding="UTF-8"?>
<!DOCTYPE svg PUBLIC "-//W3C//DTD SVG 1.1//EN" "http://www.w3.org/Graphics/SVG/1.1/DTD/svg11.dtd">
<!-- Creator: CorelDRAW 2020 (64-Bit) -->
<svg xmlns="http://www.w3.org/2000/svg" xml:space="preserve" width="0.228189in" height="0.228189in" version="1.1" style="shape-rendering:geometricPrecision; text-rendering:geometricPrecision; image-rendering:optimizeQuality; fill-rule:evenodd; clip-rule:evenodd"
viewBox="0 0 0.72 0.72"
 xmlns:xlink="http://www.w3.org/1999/xlink"
 xmlns:xodm="http://www.corel.com/coreldraw/odm/2003">
 <defs>
  <style type="text/css">
   <![CDATA[
    .fil0 {fill:none}
    .fil1 {fill:#6C7A8C;fill-rule:nonzero}
   ]]>
  </style>
 </defs>
 <g id="Layer_x0020_1">
  <metadata id="CorelCorpID_0Corel-Layer"/>
  <rect class="fil0" width="0.72" height="0.72"/>
  <path class="fil1" d="M0.36 0.21c0.05,0 0.09,0.01 0.13,0.04 0.04,0.02 0.07,0.06 0.09,0.1 0,0.01 0,0.02 0,0.02 -0.02,0.04 -0.05,0.07 -0.09,0.1 -0.04,0.02 -0.08,0.04 -0.13,0.04 -0.05,0 -0.09,-0.01 -0.13,-0.04 -0.04,-0.02 -0.07,-0.06 -0.09,-0.1 -0,-0.01 -0,-0.02 0,-0.02 0.02,-0.04 0.05,-0.07 0.09,-0.1 0.04,-0.02 0.08,-0.04 0.13,-0.04zm0.07 0.07c0.02,0.02 0.04,0.05 0.04,0.08 0,0.03 -0.01,0.06 -0.04,0.08 0.01,-0 0.02,-0.01 0.03,-0.01 0.03,-0.02 0.05,-0.04 0.07,-0.07 -0.02,-0.03 -0.04,-0.05 -0.07,-0.07 -0.01,-0.01 -0.02,-0.01 -0.03,-0.01zm-0.15 0.16c-0.02,-0.02 -0.04,-0.05 -0.04,-0.08 0,-0.01 0,-0.03 0.01,-0.04 0,0.02 0.02,0.03 0.04,0.03 0.02,0 0.04,-0.02 0.04,-0.04 0,-0.02 -0.01,-0.03 -0.03,-0.04 -0.02,0 -0.04,0.01 -0.06,0.02 -0.03,0.02 -0.05,0.04 -0.07,0.07 0.02,0.03 0.04,0.05 0.07,0.07 0.01,0.01 0.02,0.01 0.03,0.01z"/>
 </g>
</svg>
