<?xml version="1.0" encoding="UTF-8"?>
<!DOCTYPE svg PUBLIC "-//W3C//DTD SVG 1.1//EN" "http://www.w3.org/Graphics/SVG/1.1/DTD/svg11.dtd">
<!-- Creator: CorelDRAW 2020 (64-Bit) -->
<svg xmlns="http://www.w3.org/2000/svg" xml:space="preserve" width="0.293752in" height="0.293752in" version="1.1" style="shape-rendering:geometricPrecision; text-rendering:geometricPrecision; image-rendering:optimizeQuality; fill-rule:evenodd; clip-rule:evenodd"
viewBox="0 0 1.25 1.25"
 xmlns:xlink="http://www.w3.org/1999/xlink"
 xmlns:xodm="http://www.corel.com/coreldraw/odm/2003">
 <defs>
  <style type="text/css">
   <![CDATA[
    .fil0 {fill:none}
    .fil2 {fill:#333A4C}
    .fil1 {fill:#333A4C;fill-rule:nonzero}
   ]]>
  </style>
 </defs>
 <g id="Layer_x0020_1">
  <metadata id="CorelCorpID_0Corel-Layer"/>
  <rect class="fil0" width="1.25" height="1.25"/>
  <path class="fil1" d="M0.75 0.87l-0.51 0c-0.02,0 -0.04,-0.02 -0.04,-0.04l0 -0.51c0,-0.02 0.02,-0.04 0.04,-0.04l0.49 0 -0.05 0.09 -0.39 0 0 0.42 0.42 0 0 -0.27 0.02 0.03 0.07 0.04 0 0.25c0,0.02 -0.02,0.04 -0.04,0.04zm0.19 0.19l-0.51 0c-0.02,0 -0.04,-0.02 -0.04,-0.04l0 -0.06c0,-0.02 0.02,-0.04 0.04,-0.04l0.01 0c0.02,0 0.04,0.02 0.04,0.04l0 0.02 0.42 0 0 -0.38 0.08 -0.02 0.01 -0.01 0 0.45c0,0.02 -0.02,0.04 -0.04,0.04z"/>
  <path class="fil2" d="M0.69 0.19l0.34 0c0.02,0 0.04,0.02 0.04,0.04l0 0.34c0,0.02 -0.02,0.04 -0.04,0.04l-0.34 0c-0.02,0 -0.04,-0.02 -0.04,-0.04l0 -0.34c0,-0.02 0.02,-0.04 0.04,-0.04zm0.31 0.17c0.02,0 0.04,0.02 0.04,0.04 0,0.02 -0.02,0.04 -0.04,0.04l-0.09 0 0 0.09c0,0.02 -0.02,0.04 -0.04,0.04 -0.02,0 -0.04,-0.02 -0.04,-0.04l0 -0.09 -0.09 0c-0.02,0 -0.04,-0.02 -0.04,-0.04 0,-0.02 0.02,-0.04 0.04,-0.04l0.09 0 0 -0.09c0,-0.02 0.02,-0.04 0.04,-0.04 0.02,0 0.04,0.02 0.04,0.04l0 0.09 0.09 0z"/>
 </g>
</svg>
