<?xml version="1.0" encoding="UTF-8"?>
<!DOCTYPE svg PUBLIC "-//W3C//DTD SVG 1.1//EN" "http://www.w3.org/Graphics/SVG/1.1/DTD/svg11.dtd">
<!-- Creator: CorelDRAW 2020 (64-Bit) -->
<svg xmlns="http://www.w3.org/2000/svg" xml:space="preserve" width="0.228189in" height="0.228189in" version="1.1" style="shape-rendering:geometricPrecision; text-rendering:geometricPrecision; image-rendering:optimizeQuality; fill-rule:evenodd; clip-rule:evenodd"
viewBox="0 0 0.74 0.74"
 xmlns:xlink="http://www.w3.org/1999/xlink"
 xmlns:xodm="http://www.corel.com/coreldraw/odm/2003">
 <defs>
  <style type="text/css">
   <![CDATA[
    .fil0 {fill:none}
    .fil1 {fill:#A0AEC0;fill-rule:nonzero}
    .fil2 {fill:#FF3466;fill-rule:nonzero}
   ]]>
  </style>
 </defs>
 <g id="Layer_x0020_1">
  <metadata id="CorelCorpID_0Corel-Layer"/>
  <rect class="fil0" width="0.74" height="0.74"/>
  <path class="fil1" d="M0.11 0.41l0.15 0c0.02,0 0.03,0.01 0.03,0.03l0 0.15c0,0.02 -0.01,0.03 -0.03,0.03l-0.15 0c-0.02,0 -0.03,-0.01 -0.03,-0.03l0 -0.15c0,-0.02 0.01,-0.03 0.03,-0.03zm0.12 0.06l-0.09 0 0 0.09 0.09 0 0 -0.09z"/>
  <path class="fil2" d="M0.05 0.07l0.2 0c0.02,0 0.03,0.01 0.03,0.03l0 0.24c0,0.02 -0.01,0.03 -0.03,0.03l-0.2 0c-0.02,0 -0.03,-0.01 -0.03,-0.03l0 -0.24c0,-0.02 0.01,-0.03 0.03,-0.03zm0.17 0.06l-0.14 0 0 0.17 0.14 0 0 -0.17z"/>
  <path class="fil1" d="M0.36 0.2l0.14 0c0.02,0 0.03,0.01 0.03,0.03 0,0.02 -0.01,0.03 -0.03,0.03l-0.11 0 0 0.33 0.26 0 0 -0.33 -0.03 0c-0.02,0 -0.03,-0.01 -0.03,-0.03 0,-0.02 0.01,-0.03 0.03,-0.03l0.07 0c0.02,0 0.03,0.01 0.03,0.03l0 0.39c0,0.02 -0.01,0.03 -0.03,0.03l-0.33 0c-0.02,0 -0.03,-0.01 -0.03,-0.03l0 -0.39c0,-0.02 0.01,-0.03 0.03,-0.03z"/>
 </g>
</svg>
