<?xml version="1.0" encoding="UTF-8"?>
<!DOCTYPE svg PUBLIC "-//W3C//DTD SVG 1.1//EN" "http://www.w3.org/Graphics/SVG/1.1/DTD/svg11.dtd">
<!-- Creator: CorelDRAW 2020 (64-Bit) -->
<svg xmlns="http://www.w3.org/2000/svg" xml:space="preserve" width="0.228189in" height="0.228189in" version="1.1" style="shape-rendering:geometricPrecision; text-rendering:geometricPrecision; image-rendering:optimizeQuality; fill-rule:evenodd; clip-rule:evenodd"
viewBox="0 0 0.71 0.71"
 xmlns:xlink="http://www.w3.org/1999/xlink"
 xmlns:xodm="http://www.corel.com/coreldraw/odm/2003">
 <defs>
  <style type="text/css">
   <![CDATA[
    .fil0 {fill:none}
    .fil1 {fill:#333A4C;fill-rule:nonzero}
   ]]>
  </style>
 </defs>
 <g id="Layer_x0020_1">
  <metadata id="CorelCorpID_0Corel-Layer"/>
  <rect class="fil0" width="0.71" height="0.71"/>
  <path class="fil1" d="M0.52 0.14l0.11 0c0.02,0 0.03,0.01 0.03,0.03l0 0.42c0,0.02 -0.01,0.03 -0.03,0.03l-0.54 0c-0.02,0 -0.03,-0.01 -0.03,-0.03l0 -0.22c0,-0.02 0.01,-0.03 0.03,-0.03l0 0c0.02,0 0.03,0.01 0.03,0.03l0 0.19 0.47 0 0 -0.35 -0.07 0c-0.02,0 -0.03,-0.01 -0.03,-0.03l0 -0c0,-0.02 0.01,-0.03 0.03,-0.03z"/>
  <path class="fil1" d="M0.44 0.08l0 0.18c0,0.02 -0.01,0.03 -0.03,0.03l-0.32 0c-0.02,0 -0.03,-0.01 -0.03,-0.03l0 -0.18c0,-0.02 0.01,-0.03 0.03,-0.03l0.32 0c0.02,0 0.03,0.01 0.03,0.03zm-0.06 0.03l-0.25 0 0 0.11 0.25 0 0 -0.11z"/>
 </g>
</svg>
