<?xml version="1.0" encoding="UTF-8"?>
<!DOCTYPE svg PUBLIC "-//W3C//DTD SVG 1.1//EN" "http://www.w3.org/Graphics/SVG/1.1/DTD/svg11.dtd">
<!-- Creator: CorelDRAW 2020 (64-Bit) -->
<svg xmlns="http://www.w3.org/2000/svg" xml:space="preserve" width="0.239835in" height="0.239835in" version="1.1" style="shape-rendering:geometricPrecision; text-rendering:geometricPrecision; image-rendering:optimizeQuality; fill-rule:evenodd; clip-rule:evenodd"
viewBox="0 0 0.78 0.78"
 xmlns:xlink="http://www.w3.org/1999/xlink"
 xmlns:xodm="http://www.corel.com/coreldraw/odm/2003">
 <defs>
  <style type="text/css">
   <![CDATA[
    .fil0 {fill:none}
    .fil1 {fill:#4A5568;fill-rule:nonzero}
   ]]>
  </style>
 </defs>
 <g id="Layer_x0020_1">
  <metadata id="CorelCorpID_0Corel-Layer"/>
  <rect class="fil0" width="0.78" height="0.78"/>
  <path class="fil1" d="M0.57 0.15l0.12 0c0.02,0 0.03,0.02 0.03,0.03l0 0.46c0,0.02 -0.02,0.03 -0.03,0.03l-0.59 0c-0.02,0 -0.03,-0.02 -0.03,-0.03l0 -0.24c0,-0.02 0.02,-0.03 0.03,-0.03l0 0c0.02,0 0.03,0.02 0.03,0.03l0 0.2 0.52 0 0 -0.39 -0.08 0c-0.02,0 -0.03,-0.02 -0.03,-0.03l0 -0c0,-0.02 0.02,-0.03 0.03,-0.03z"/>
  <path class="fil1" d="M0.48 0.09l0 0.19c0,0.02 -0.02,0.03 -0.03,0.03l-0.36 0c-0.02,0 -0.03,-0.02 -0.03,-0.03l0 -0.19c0,-0.02 0.02,-0.03 0.03,-0.03l0.36 0c0.02,0 0.03,0.02 0.03,0.03zm-0.07 0.04l-0.28 0 0 0.12 0.28 0 0 -0.12z"/>
 </g>
</svg>
