<?xml version="1.0" encoding="UTF-8"?>
<!DOCTYPE svg PUBLIC "-//W3C//DTD SVG 1.1//EN" "http://www.w3.org/Graphics/SVG/1.1/DTD/svg11.dtd">
<!-- Creator: CorelDRAW 2020 (64-Bit) -->
<svg xmlns="http://www.w3.org/2000/svg" xml:space="preserve" width="0.228189in" height="0.228189in" version="1.1" style="shape-rendering:geometricPrecision; text-rendering:geometricPrecision; image-rendering:optimizeQuality; fill-rule:evenodd; clip-rule:evenodd"
viewBox="0 0 0.7 0.7"
 xmlns:xlink="http://www.w3.org/1999/xlink"
 xmlns:xodm="http://www.corel.com/coreldraw/odm/2003">
 <defs>
  <style type="text/css">
   <![CDATA[
    .fil0 {fill:none}
    .fil1 {fill:#333A4C;fill-rule:nonzero}
   ]]>
  </style>
 </defs>
 <g id="Layer_x0020_1">
  <metadata id="CorelCorpID_0Corel-Layer"/>
  <rect class="fil0" width="0.7" height="0.7"/>
  <path class="fil1" d="M0.05 0.6l0 -0.5c0,-0.02 0.01,-0.03 0.03,-0.03l0.1 0c0.02,0 0.03,0.01 0.03,0.03 0,0.02 -0.01,0.03 -0.03,0.03l-0.07 0 0 0.44 0.47 0 0 -0.44 -0.29 0c-0.02,0 -0.03,-0.01 -0.03,-0.03l0 0c0,-0.02 0.01,-0.03 0.03,-0.03l0.32 0c0.02,0 0.03,0.01 0.03,0.03l0 0.5c0,0.02 -0.01,0.03 -0.03,0.03l-0.53 0c-0.02,0 -0.03,-0.01 -0.03,-0.03z"/>
  <path class="fil1" d="M0.14 0.5l0.08 -0.18c0.01,-0.02 0.02,-0.02 0.04,-0.02 0,0 0.01,0.01 0.01,0.01l0.05 0.05 0.09 -0.17c0.01,-0.01 0.03,-0.02 0.04,-0.01 0.01,0 0.01,0.01 0.01,0.02l0.11 0.3c0.01,0.02 -0,0.03 -0.02,0.04 -0,0 -0.01,0 -0.01,0l-0.37 0c-0.02,0 -0.03,-0.01 -0.03,-0.03 0,-0 0,-0.01 0,-0.01zm0.12 -0.11l-0.04 0.1 0.28 0 -0.07 -0.2 -0.08 0.14c-0,0 -0,0.01 -0.01,0.01 -0.01,0.01 -0.03,0.01 -0.04,-0l-0.04 -0.05z"/>
 </g>
</svg>
