<?xml version="1.0" encoding="UTF-8"?>
<!DOCTYPE svg PUBLIC "-//W3C//DTD SVG 1.1//EN" "http://www.w3.org/Graphics/SVG/1.1/DTD/svg11.dtd">
<!-- Creator: CorelDRAW 2020 (64-Bit) -->
<svg xmlns="http://www.w3.org/2000/svg" xml:space="preserve" width="0.228189in" height="0.228189in" version="1.1" style="shape-rendering:geometricPrecision; text-rendering:geometricPrecision; image-rendering:optimizeQuality; fill-rule:evenodd; clip-rule:evenodd"
viewBox="0 0 0.73 0.73"
 xmlns:xlink="http://www.w3.org/1999/xlink"
 xmlns:xodm="http://www.corel.com/coreldraw/odm/2003">
 <defs>
  <style type="text/css">
   <![CDATA[
    .fil0 {fill:none}
    .fil1 {fill:#4A5568;fill-rule:nonzero}
   ]]>
  </style>
 </defs>
 <g id="Layer_x0020_1">
  <metadata id="CorelCorpID_0Corel-Layer"/>
  <rect class="fil0" width="0.73" height="0.73"/>
  <path class="fil1" d="M0.28 0.31l0.21 0c0.01,0 0.02,0 0.03,0.01 0.01,0.01 0.01,0.02 0.01,0.03l0 0.12c0,0.01 -0,0.02 -0.01,0.03 -0.01,0.01 -0.02,0.01 -0.03,0.01l-0.25 0c-0.01,0 -0.02,-0 -0.03,-0.01 -0.01,-0.01 -0.01,-0.02 -0.01,-0.03l0 -0.12c0,-0.01 0,-0.02 0.01,-0.03 0,-0 0.01,-0.01 0.01,-0.01 0,-0.02 0,-0.05 0,-0.06 0,-0.04 0.02,-0.07 0.05,-0.09 0.02,-0.02 0.06,-0.04 0.09,-0.04 0.02,0 0.05,0.01 0.07,0.02 0.01,0 0.01,0.01 0.01,0.02 0,0.01 -0,0.02 -0.01,0.02 -0.01,0.01 -0.02,0.01 -0.03,0.01 -0.01,-0.01 -0.03,-0.01 -0.04,-0.01 -0.02,0 -0.04,0.01 -0.06,0.02 -0.02,0.01 -0.03,0.03 -0.03,0.06l-0 0.05zm0.2 0.05l-0.23 0 0 0.1 0.23 0 0 -0.1z"/>
 </g>
</svg>
