<?xml version="1.0" encoding="UTF-8"?>
<!DOCTYPE svg PUBLIC "-//W3C//DTD SVG 1.1//EN" "http://www.w3.org/Graphics/SVG/1.1/DTD/svg11.dtd">
<!-- Creator: CorelDRAW 2020 (64-Bit) -->
<svg xmlns="http://www.w3.org/2000/svg" xml:space="preserve" width="0.239835in" height="0.239835in" version="1.1" style="shape-rendering:geometricPrecision; text-rendering:geometricPrecision; image-rendering:optimizeQuality; fill-rule:evenodd; clip-rule:evenodd"
viewBox="0 0 0.81 0.81"
 xmlns:xlink="http://www.w3.org/1999/xlink"
 xmlns:xodm="http://www.corel.com/coreldraw/odm/2003">
 <defs>
  <style type="text/css">
   <![CDATA[
    .fil0 {fill:none}
    .fil1 {fill:#A0AEC0;fill-rule:nonzero}
   ]]>
  </style>
 </defs>
 <g id="Layer_x0020_1">
  <metadata id="CorelCorpID_0Corel-Layer"/>
  <rect class="fil0" width="0.81" height="0.81"/>
  <path class="fil1" d="M0.56 0.16l0.09 0.09c0.01,0.01 0.01,0.03 0,0.05l-0.35 0.35c-0.01,0.01 -0.01,0.01 -0.02,0.01l-0.11 0c-0.01,0 -0.01,-0 -0.01,-0.01l0 -0.11c0,-0.01 0,-0.02 0.01,-0.02l0.35 -0.35c0.01,-0.01 0.03,-0.01 0.05,0zm-0.06 0.11l0.05 0.05 0.04 -0.04 -0.05 -0.05 -0.04 0.04zm0 0.09l-0.05 -0.05 -0.18 0.18 0.05 0.05 0.18 -0.18zm-0.22 0.22l-0.05 -0.05 -0.02 0.02 0 0.05 0.05 0 0.02 -0.02z"/>
 </g>
</svg>
