<?xml version="1.0" encoding="UTF-8"?>
<!DOCTYPE svg PUBLIC "-//W3C//DTD SVG 1.1//EN" "http://www.w3.org/Graphics/SVG/1.1/DTD/svg11.dtd">
<!-- Creator: CorelDRAW 2020 (64-Bit) -->
<svg xmlns="http://www.w3.org/2000/svg" xml:space="preserve" width="0.239835in" height="0.239835in" version="1.1" style="shape-rendering:geometricPrecision; text-rendering:geometricPrecision; image-rendering:optimizeQuality; fill-rule:evenodd; clip-rule:evenodd"
viewBox="0 0 0.83 0.83"
 xmlns:xlink="http://www.w3.org/1999/xlink"
 xmlns:xodm="http://www.corel.com/coreldraw/odm/2003">
 <defs>
  <style type="text/css">
   <![CDATA[
    .fil0 {fill:none}
    .fil1 {fill:#4A5568;fill-rule:nonzero}
   ]]>
  </style>
 </defs>
 <g id="Layer_x0020_1">
  <metadata id="CorelCorpID_0Corel-Layer"/>
  <rect class="fil0" width="0.83" height="0.83"/>
  <path class="fil1" d="M0.12 0.46l0.17 0c0.02,0 0.04,0.02 0.04,0.04l0 0.17c0,0.02 -0.02,0.04 -0.04,0.04l-0.17 0c-0.02,0 -0.04,-0.02 -0.04,-0.04l0 -0.17c0,-0.02 0.02,-0.04 0.04,-0.04zm0.13 0.07l-0.1 0 0 0.1 0.1 0 0 -0.1z"/>
  <path class="fil1" d="M0.06 0.08l0.23 0c0.02,0 0.04,0.02 0.04,0.04l0 0.26c0,0.02 -0.02,0.04 -0.04,0.04l-0.23 0c-0.02,0 -0.04,-0.02 -0.04,-0.04l0 -0.26c0,-0.02 0.02,-0.04 0.04,-0.04zm0.19 0.07l-0.16 0 0 0.19 0.16 0 0 -0.19z"/>
  <path class="fil1" d="M0.4 0.22l0.16 0c0.02,0 0.04,0.02 0.04,0.04 0,0.02 -0.02,0.04 -0.04,0.04l-0.12 0 0 0.37 0.3 0 0 -0.37 -0.04 0c-0.02,0 -0.04,-0.02 -0.04,-0.04 0,-0.02 0.02,-0.04 0.04,-0.04l0.07 0c0.02,0 0.04,0.02 0.04,0.04l0 0.44c0,0.02 -0.02,0.04 -0.04,0.04l-0.37 0c-0.02,0 -0.04,-0.02 -0.04,-0.04l0 -0.44c0,-0.02 0.02,-0.04 0.04,-0.04z"/>
 </g>
</svg>
