<?xml version="1.0" encoding="UTF-8"?>
<!DOCTYPE svg PUBLIC "-//W3C//DTD SVG 1.1//EN" "http://www.w3.org/Graphics/SVG/1.1/DTD/svg11.dtd">
<!-- Creator: CorelDRAW 2020 (64-Bit) -->
<svg xmlns="http://www.w3.org/2000/svg" xml:space="preserve" width="0.293752in" height="0.293752in" version="1.1" style="shape-rendering:geometricPrecision; text-rendering:geometricPrecision; image-rendering:optimizeQuality; fill-rule:evenodd; clip-rule:evenodd"
viewBox="0 0 1.24 1.24"
 xmlns:xlink="http://www.w3.org/1999/xlink"
 xmlns:xodm="http://www.corel.com/coreldraw/odm/2003">
 <defs>
  <style type="text/css">
   <![CDATA[
    .fil0 {fill:none}
    .fil2 {fill:#333A4C}
    .fil1 {fill:#333A4C;fill-rule:nonzero}
   ]]>
  </style>
 </defs>
 <g id="Layer_x0020_1">
  <metadata id="CorelCorpID_0Corel-Layer"/>
  <rect class="fil0" width="1.24" height="1.24"/>
  <path class="fil1" d="M0.23 0.72l0.21 0c0.02,0 0.04,0.02 0.04,0.04l0 0.21c0,0.02 -0.02,0.04 -0.04,0.04l-0.21 0c-0.02,0 -0.04,-0.02 -0.04,-0.04l0 -0.21c0,-0.02 0.02,-0.04 0.04,-0.04zm0.34 -0.29l0.16 0 -0 0.03 0.05 0.06c-0,0 -0.01,0 -0.01,0l-0.15 0 0 0.45 0.36 0 0 -0.38 0.07 -0.01 0.02 -0.04 0 0.48c0,0.02 -0.02,0.04 -0.04,0.04l-0.45 0c-0.02,0 -0.04,-0.02 -0.04,-0.04l0 -0.54c0,-0.02 0.02,-0.04 0.04,-0.04zm-0.42 -0.17l0.28 0c0.02,0 0.04,0.02 0.04,0.04l0 0.33c0,0.02 -0.02,0.04 -0.04,0.04l-0.28 0c-0.02,0 -0.04,-0.02 -0.04,-0.04l0 -0.33c0,-0.02 0.02,-0.04 0.04,-0.04zm0.24 0.09l-0.19 0 0 0.24 0.19 0 0 -0.24zm0 0.46l-0.12 0 0 0.12 0.12 0 0 -0.12z"/>
  <path class="fil2" d="M0.76 0.19l0.34 0c0.02,0 0.04,0.02 0.04,0.04l0 0.34c0,0.02 -0.02,0.04 -0.04,0.04l-0.34 0c-0.02,0 -0.04,-0.02 -0.04,-0.04l0 -0.34c0,-0.02 0.02,-0.04 0.04,-0.04zm0.3 0.17c0.02,0 0.04,0.02 0.04,0.04 0,0.02 -0.02,0.04 -0.04,0.04l-0.09 0 0 0.09c0,0.02 -0.02,0.04 -0.04,0.04 -0.02,0 -0.04,-0.02 -0.04,-0.04l0 -0.09 -0.09 0c-0.02,0 -0.04,-0.02 -0.04,-0.04 0,-0.02 0.02,-0.04 0.04,-0.04l0.09 0 0 -0.09c0,-0.02 0.02,-0.04 0.04,-0.04 0.02,0 0.04,0.02 0.04,0.04l0 0.09 0.09 0z"/>
 </g>
</svg>
