<?xml version="1.0" encoding="UTF-8"?>
<!DOCTYPE svg PUBLIC "-//W3C//DTD SVG 1.1//EN" "http://www.w3.org/Graphics/SVG/1.1/DTD/svg11.dtd">
<!-- Creator: CorelDRAW 2020 (64-Bit) -->
<svg xmlns="http://www.w3.org/2000/svg" xml:space="preserve" width="0.426602in" height="0.529413in" version="1.1" style="shape-rendering:geometricPrecision; text-rendering:geometricPrecision; image-rendering:optimizeQuality; fill-rule:evenodd; clip-rule:evenodd"
viewBox="0 0 7.3 9.06"
 xmlns:xlink="http://www.w3.org/1999/xlink"
 xmlns:xodm="http://www.corel.com/coreldraw/odm/2003">
 <defs>
  <style type="text/css">
   <![CDATA[
    .fil0 {fill:white}
   ]]>
  </style>
 </defs>
 <g id="Sidebar_x002f_Toolbar">
  <metadata id="CorelCorpID_0Corel-Layer"/>
  <path class="fil0" d="M0.07 0c0,0 1.89,0.88 4.27,4.21 2.38,3.33 2.96,4.77 2.96,4.77 0,0 0.02,0.05 0,0.06 -0.02,0.01 -0.06,0.02 -0.11,-0.04 -0.05,-0.06 -0.52,-0.55 -0.84,-0.85 -0.33,-0.3 -0.67,-0.58 -0.67,-0.58 0,0 -0.93,0.08 -1.66,-0.13 -0.74,-0.2 -1.17,-0.45 -1.17,-0.45l0.92 -0.66c0,0 -0.55,0.09 -1.02,0.06 -0.47,-0.03 -0.91,-0.11 -0.91,-0.11 0,0 -1.13,-1 -1.56,-2.97 -0.43,-1.97 -0.19,-3.32 -0.19,-3.32z"/>
 </g>
</svg>
