<?xml version="1.0" encoding="UTF-8"?>
<!DOCTYPE svg PUBLIC "-//W3C//DTD SVG 1.1//EN" "http://www.w3.org/Graphics/SVG/1.1/DTD/svg11.dtd">
<!-- Creator: CorelDRAW 2020 (64-Bit) -->
<svg xmlns="http://www.w3.org/2000/svg" xml:space="preserve" width="0.523063in" height="0.523063in" version="1.1" style="shape-rendering:geometricPrecision; text-rendering:geometricPrecision; image-rendering:optimizeQuality; fill-rule:evenodd; clip-rule:evenodd"
viewBox="0 0 11.06 11.06"
 xmlns:xlink="http://www.w3.org/1999/xlink"
 xmlns:xodm="http://www.corel.com/coreldraw/odm/2003">
 <defs>
  <style type="text/css">
   <![CDATA[
    .fil0 {fill:#333A4C}
    .fil1 {fill:#E2E8F0}
   ]]>
  </style>
 </defs>
 <g id="Sidebar_x002f_Toolbar">
  <metadata id="CorelCorpID_0Corel-Layer"/>
  <rect class="fil0" y="-0" width="11.06" height="11.06" rx="0.46" ry="1.65"/>
  <path class="fil1" d="M3.22 7.65l0.19 0.19 0.69 -0.26 -0.62 -0.62 -0.26 0.69zm-0.52 0.51l0.52 -1.37 0.03 -0.05 3.37 -3.37 1.07 1.07 -3.37 3.37 -0.05 0.03 -1.49 0.57c-0.04,0.01 -0.07,0.01 -0.1,-0.02 -0.03,-0.03 -0.04,-0.07 -0.02,-0.1l0.04 -0.12zm5.17 -3.91l0.49 -0.49c0.06,-0.06 0.06,-0.16 0,-0.22l-0.85 -0.85c-0.06,-0.06 -0.16,-0.06 -0.21,0l-0.49 0.49 1.07 1.06z"/>
 </g>
</svg>
