<?xml version="1.0" encoding="UTF-8"?>
<!DOCTYPE svg PUBLIC "-//W3C//DTD SVG 1.1//EN" "http://www.w3.org/Graphics/SVG/1.1/DTD/svg11.dtd">
<!-- Creator: CorelDRAW 2020 (64-Bit) -->
<svg xmlns="http://www.w3.org/2000/svg" xml:space="preserve" width="0.523063in" height="0.523063in" version="1.1" style="shape-rendering:geometricPrecision; text-rendering:geometricPrecision; image-rendering:optimizeQuality; fill-rule:evenodd; clip-rule:evenodd"
viewBox="0 0 11.06 11.06"
 xmlns:xlink="http://www.w3.org/1999/xlink"
 xmlns:xodm="http://www.corel.com/coreldraw/odm/2003">
 <defs>
  <style type="text/css">
   <![CDATA[
    .fil0 {fill:none}
    .fil1 {fill:#E2E8F0}
   ]]>
  </style>
 </defs>
 <g id="Sidebar_x002f_Toolbar">
  <metadata id="CorelCorpID_0Corel-Layer"/>
  <rect class="fil0" y="-0" width="11.06" height="11.06" rx="0.46" ry="1.65"/>
  <path class="fil1" d="M3.87 6.13l1.07 0 0 1.07 -0.36 0c-0.11,0 -0.2,0.06 -0.24,0.16 -0.04,0.1 -0.02,0.21 0.06,0.29l0.96 0.96c0.05,0.05 0.11,0.08 0.19,0.08 0.07,0 0.13,-0.03 0.19,-0.08l0.96 -0.96c0.08,-0.08 0.1,-0.19 0.06,-0.29 -0.04,-0.1 -0.13,-0.16 -0.24,-0.16l-0.36 0 0 -1.07 1.07 0 0 0.36c0,0.11 0.06,0.2 0.16,0.24 0.1,0.04 0.21,0.02 0.29,-0.06l0.96 -0.96c0.05,-0.05 0.08,-0.11 0.08,-0.19 0,-0.07 -0.03,-0.13 -0.08,-0.19l-0.96 -0.96c-0.08,-0.08 -0.19,-0.1 -0.29,-0.06 -0.1,0.04 -0.16,0.13 -0.16,0.24l0 0.36 -1.07 0 0 -1.07 0.36 0c0.11,0 0.2,-0.06 0.24,-0.16 0.04,-0.1 0.02,-0.21 -0.06,-0.29l-0.96 -0.96c-0.05,-0.05 -0.11,-0.08 -0.19,-0.08 -0.07,0 -0.13,0.03 -0.19,0.08l-0.96 0.96c-0.08,0.08 -0.1,0.19 -0.06,0.29 0.04,0.1 0.13,0.16 0.24,0.16l0.36 0 0 1.07 -1.07 0 0 -0.36c0,-0.11 -0.06,-0.2 -0.16,-0.24 -0.1,-0.04 -0.21,-0.02 -0.29,0.06l-0.96 0.96c-0.05,0.05 -0.08,0.11 -0.08,0.19 0,0.07 0.03,0.13 0.08,0.19l0.96 0.96c0.08,0.08 0.19,0.1 0.29,0.06 0.1,-0.04 0.16,-0.13 0.16,-0.24l0 -0.36zm1.67 -1.19c0.33,0 0.6,0.27 0.6,0.6 0,0.33 -0.27,0.6 -0.6,0.6 -0.33,0 -0.6,-0.27 -0.6,-0.6 0,-0.33 0.27,-0.6 0.6,-0.6z"/>
 </g>
</svg>
