<?xml version="1.0" encoding="UTF-8"?>
<!DOCTYPE svg PUBLIC "-//W3C//DTD SVG 1.1//EN" "http://www.w3.org/Graphics/SVG/1.1/DTD/svg11.dtd">
<!-- Creator: CorelDRAW 2020 (64-Bit) -->
<svg xmlns="http://www.w3.org/2000/svg" xml:space="preserve" width="0.959717in" height="0.959717in" version="1.1" style="shape-rendering:geometricPrecision; text-rendering:geometricPrecision; image-rendering:optimizeQuality; fill-rule:evenodd; clip-rule:evenodd"
viewBox="0 0 37.78 37.78"
 xmlns:xlink="http://www.w3.org/1999/xlink"
 xmlns:xodm="http://www.corel.com/coreldraw/odm/2003">
 <defs>
  <style type="text/css">
   <![CDATA[
    .fil1 {fill:white}
    .fil0 {fill:url(#id0)}
   ]]>
  </style>
  <linearGradient id="id0" gradientUnits="userSpaceOnUse" x1="18.89" y1="0" x2="18.89" y2="37.78">
   <stop offset="0" style="stop-opacity:1; stop-color:#FF3466"/>
   <stop offset="1" style="stop-opacity:1; stop-color:#F6733B"/>
  </linearGradient>
 </defs>
 <g id="Sidebar_x002f_Toolbar">
  <metadata id="CorelCorpID_0Corel-Layer"/>
  <rect class="fil0" width="37.78" height="37.78"/>
  <path class="fil1" d="M11.2 7.9c0,0 4.34,2.03 9.82,9.69 5.48,7.66 6.8,10.98 6.8,10.98 0,0 0.04,0.12 0,0.15 -0.03,0.03 -0.14,0.04 -0.26,-0.09 -0.11,-0.13 -1.19,-1.26 -1.94,-1.95 -0.75,-0.7 -1.55,-1.34 -1.55,-1.34 0,0 -2.13,0.18 -3.83,-0.29 -1.7,-0.47 -2.69,-1.04 -2.69,-1.04l2.12 -1.51c0,0 -1.27,0.2 -2.35,0.13 -1.08,-0.08 -2.1,-0.25 -2.1,-0.25 0,0 -2.61,-2.29 -3.6,-6.83 -0.99,-4.54 -0.43,-7.64 -0.43,-7.64z"/>
 </g>
</svg>
