<?xml version="1.0" encoding="UTF-8"?>
<!DOCTYPE svg PUBLIC "-//W3C//DTD SVG 1.1//EN" "http://www.w3.org/Graphics/SVG/1.1/DTD/svg11.dtd">
<!-- Creator: CorelDRAW 2020 (64-Bit) -->
<svg xmlns="http://www.w3.org/2000/svg" xml:space="preserve" width="0.386378in" height="0.386378in" version="1.1" style="shape-rendering:geometricPrecision; text-rendering:geometricPrecision; image-rendering:optimizeQuality; fill-rule:evenodd; clip-rule:evenodd"
viewBox="0 0 5.64 5.64"
 xmlns:xlink="http://www.w3.org/1999/xlink"
 xmlns:xodm="http://www.corel.com/coreldraw/odm/2003">
 <defs>
  <style type="text/css">
   <![CDATA[
    .fil0 {fill:none}
    .fil1 {fill:#333A4C;fill-rule:nonzero}
   ]]>
  </style>
 </defs>
 <g id="Header">
  <metadata id="CorelCorpID_0Corel-Layer"/>
  <rect class="fil0" x="0" y="-0" width="5.64" height="5.64"/>
  <path class="fil1" d="M4.11 3.84l-2.58 0c-0.02,0 -0.04,-0.02 -0.04,-0.04l0 -0.2c0,-0.02 0.02,-0.04 0.04,-0.04l2.58 0c0.02,0 0.04,0.02 0.04,0.04l0 0.2c0,0.02 -0.02,0.04 -0.04,0.04zm0 -1.75l-2.58 0c-0.02,0 -0.04,-0.02 -0.04,-0.04l0 -0.2c0,-0.02 0.02,-0.04 0.04,-0.04l2.58 0c0.02,0 0.04,0.02 0.04,0.04l0 0.2c0,0.02 -0.02,0.04 -0.04,0.04zm0 0.88l-2.58 0c-0.02,0 -0.04,-0.02 -0.04,-0.04l0 -0.2c0,-0.02 0.02,-0.04 0.04,-0.04l2.58 0c0.02,0 0.04,0.02 0.04,0.04l0 0.2c0,0.02 -0.02,0.04 -0.04,0.04z"/>
 </g>
</svg>
