<?xml version="1.0" encoding="UTF-8"?>
<!DOCTYPE svg PUBLIC "-//W3C//DTD SVG 1.1//EN" "http://www.w3.org/Graphics/SVG/1.1/DTD/svg11.dtd">
<!-- Creator: CorelDRAW 2020 (64-Bit) -->
<svg xmlns="http://www.w3.org/2000/svg" xml:space="preserve" width="0.386378in" height="0.386378in" version="1.1" style="shape-rendering:geometricPrecision; text-rendering:geometricPrecision; image-rendering:optimizeQuality; fill-rule:evenodd; clip-rule:evenodd"
viewBox="0 0 2.65 2.65"
 xmlns:xlink="http://www.w3.org/1999/xlink"
 xmlns:xodm="http://www.corel.com/coreldraw/odm/2003">
 <defs>
  <style type="text/css">
   <![CDATA[
    .fil0 {fill:none}
    .fil1 {fill:#333A4C}
   ]]>
  </style>
 </defs>
 <g id="Header">
  <metadata id="CorelCorpID_0Corel-Layer"/>
  <rect class="fil0" x="0" y="-0" width="2.65" height="2.65"/>
  <path class="fil1" d="M1.59 1.34c-0,0.02 0,0.02 -0.01,0.06 -0.02,0.08 -0.08,0.15 -0.16,0.17 -0.03,0.01 -0.08,0.02 -0.11,0.02 -0.08,-0.01 -0.12,-0.03 -0.18,-0.09 -0.04,-0.04 -0.08,-0.12 -0.07,-0.2 0.01,-0.05 0,-0.06 0.03,-0.11 0.03,-0.06 0.08,-0.11 0.14,-0.13 0.18,-0.06 0.34,0.06 0.36,0.21 0,0.04 0.01,0.03 0,0.06zm-0.8 -0.57c0,0.02 0.01,0.04 0.01,0.05 0.01,0.05 0.01,0.09 -0,0.13 -0.05,0.14 -0.18,0.13 -0.21,0.14 -0.08,0.04 -0.07,0.17 -0.07,0.25 0,0.08 0.01,0.15 0.07,0.18 0.03,0.01 0.1,0 0.17,0.08 0.1,0.11 0.02,0.23 0.02,0.26 0,0.07 0.06,0.1 0.12,0.15 0.03,0.02 0.14,0.08 0.18,0.08 0.02,0 0.05,-0.01 0.07,-0.03 0.04,-0.04 0.05,-0.08 0.14,-0.1 0.08,-0.02 0.15,0.01 0.2,0.06 0.03,0.03 0.04,0.05 0.1,0.05 0.05,0 0.24,-0.11 0.27,-0.16 0.04,-0.06 -0.01,-0.09 -0.01,-0.18 0,-0.09 0.06,-0.17 0.15,-0.19 0.04,-0.01 0.08,-0.01 0.11,-0.06 0.03,-0.06 0.03,-0.28 0,-0.34 -0.01,-0.02 -0.02,-0.03 -0.04,-0.04 -0.04,-0.02 -0.1,-0.01 -0.16,-0.09 -0.09,-0.11 -0.03,-0.19 -0.03,-0.25 0,-0.07 -0.15,-0.15 -0.2,-0.18 -0.06,-0.03 -0.13,-0.06 -0.18,-0.01 -0.03,0.03 -0.04,0.05 -0.1,0.08 -0.08,0.03 -0.17,0.01 -0.23,-0.05 -0.03,-0.03 -0.03,-0.05 -0.1,-0.05 -0.04,0 -0.13,0.05 -0.17,0.08 -0.05,0.03 -0.11,0.07 -0.11,0.13z"/>
 </g>
</svg>
