<?xml version="1.0" encoding="UTF-8"?>
<!DOCTYPE svg PUBLIC "-//W3C//DTD SVG 1.1//EN" "http://www.w3.org/Graphics/SVG/1.1/DTD/svg11.dtd">
<!-- Creator: CorelDRAW 2020 (64-Bit) -->
<svg xmlns="http://www.w3.org/2000/svg" xml:space="preserve" width="0.386667in" height="0.386667in" version="1.1" style="shape-rendering:geometricPrecision; text-rendering:geometricPrecision; image-rendering:optimizeQuality; fill-rule:evenodd; clip-rule:evenodd"
viewBox="0 0 2.51 2.51"
 xmlns:xlink="http://www.w3.org/1999/xlink"
 xmlns:xodm="http://www.corel.com/coreldraw/odm/2003">
 <defs>
  <style type="text/css">
   <![CDATA[
    .fil0 {fill:none}
    .fil1 {fill:#333A4C;fill-rule:nonzero}
   ]]>
  </style>
 </defs>
 <g id="Header">
  <metadata id="CorelCorpID_0Corel-Layer"/>
  <rect class="fil0" x="0" y="-0" width="2.51" height="2.51"/>
  <path class="fil1" d="M1.72 0.86l-0.39 0.39 0.39 0.39c0.01,0.01 0.01,0.02 0,0.02l-0.05 0.05c-0.01,0.01 -0.02,0.01 -0.02,0l-0.39 -0.39 -0.39 0.39c-0.01,0.01 -0.02,0.01 -0.02,0l-0.05 -0.05c-0.01,-0.01 -0.01,-0.02 0,-0.02l0.39 -0.39 -0.39 -0.39c-0.01,-0.01 -0.01,-0.02 0,-0.02l0.05 -0.05c0.01,-0.01 0.02,-0.01 0.02,0l0.39 0.39 0.39 -0.39c0.01,-0.01 0.02,-0.01 0.02,0l0.05 0.05c0.01,0.01 0.01,0.02 0,0.02z"/>
 </g>
</svg>
